<svg xmlns="http://www.w3.org/2000/svg" width="128" height="128" viewBox="0 0 128 128"><style>.bg {
			fill: #141414;
		}
		@media (prefers-color-scheme: light) {
			.bg {
				fill: #fbfbfb;
			}
		}</style><path d="M0 0h128v128H0z" class="bg"/><path fill="#86efac" d="M20 20h88v28H20z"/><path fill="#141414" d="M41.53 41h6.63c4.69 0 7.46-2.9 7.46-7.86v-.02c0-4.96-2.77-7.62-7.46-7.62h-6.63Zm4.55-3.62v-8.26h1.43c2.17 0 3.47 1.4 3.47 4v.02c0 2.85-1.19 4.24-3.47 4.24ZM57.39 41h4.56v-4.06l1.21-1.64 3.39 5.7h5.29l-5.34-8.63 5.11-6.87h-4.78l-4.8 6.57h-.08V25.5h-4.56Zm22.24.28c4.15 0 6.84-2.29 6.84-5.8V25.5h-4.55v9.53c0 1.63-.8 2.53-2.28 2.53s-2.28-.9-2.28-2.53V25.5h-4.55v9.98c0 3.53 2.73 5.8 6.82 5.8"/><path fill="#c4b5fd" d="M20 52h88v28H20z"/><path fill="#141414" d="M40.85 73h12.47v-3.61h-7.14v-.09l6.88-8.95V57.5H40.92v3.61h6.84v.08l-6.91 8.95Zm14.41 0h10.93v-3.61h-6.38v-2.46h5.98v-3.35h-5.98v-2.47h6.38V57.5H55.26Zm13.06 0h4.55V57.5h-4.55Zm10.19 0h4.56V61.11h4.08V57.5H74.43v3.61h4.08Z"/><path fill="#fda4af" d="M20 84h27v24H20z"/><path fill="#fcd34d" d="M50 84h28v24H50z"/><path fill="#7dd3fc" d="M81 84h27v24H81z"/></svg>